<svg width="48" height="48" viewBox="0 0 24 24" fill="none" xmlns="http://www.w3.org/2000/svg" data-reactroot="">
<path fill="#0da8b9" d="M21 13V4.34C18 4.34 18 3 15 3C12 3 12 4.34 9 4.34C6 4.34 6 3 3 3V11.66C6 11.66 6 13 9 13C12 13 12 11.66 15 11.66C18 11.66 18 13 21 13Z" undefined="1"></path>
<path fill="#0da8b9" d="M4 2C4.55228 2 5 2.44772 5 3V21C5 21.5523 4.55228 22 4 22C3.44772 22 3 21.5523 3 21V3C3 2.44772 3.44772 2 4 2Z" clip-rule="evenodd" fill-rule="evenodd" undefined="1"></path>
</svg>
